<svg version="1.2" xmlns="http://www.w3.org/2000/svg" viewBox="27.999999999999797 36.00000000000003 395.1025454209068 428.1527687941141" width="397" height="429">
	<defs>
		<linearGradient id="g1" x2="1" gradientUnits="userSpaceOnUse" gradientTransform="matrix(314.047,250.647,-167.887,210.353,196.158,105.309)">
			<stop offset="0" stop-color="#301e9c"/>
			<stop offset="1" stop-color="#de76b1"/>
		</linearGradient>
		<linearGradient id="g2" x2="1" gradientUnits="userSpaceOnUse" gradientTransform="matrix(213.686,137.902,-38.723,60.003,74.28,147.093)">
			<stop offset="0" stop-color="#412cba"/>
			<stop offset="1" stop-color="#ff94d2" stop-opacity="0"/>
		</linearGradient>
		<linearGradient id="g3" x2="1" gradientUnits="userSpaceOnUse" gradientTransform="matrix(395.103,0,0,101.139,28,363.014)">
			<stop offset="0" stop-color="#412cba"/>
			<stop offset="1" stop-color="#ff94d2"/>
		</linearGradient>
		<linearGradient id="g4" x2="1" gradientUnits="userSpaceOnUse" gradientTransform="matrix(291.72,253.67,-215.461,247.78,200.468,-47.228)">
			<stop offset="0" stop-color="#301e9c"/>
			<stop offset="1" stop-color="#de76b1"/>
		</linearGradient>
		<linearGradient id="g5" x2="1" gradientUnits="userSpaceOnUse" gradientTransform="matrix(175.828,197.469,-98.189,87.429,116.592,-50.884)">
			<stop offset="0" stop-color="#412cba"/>
			<stop offset="1" stop-color="#ff94d2" stop-opacity="0"/>
		</linearGradient>
		<linearGradient id="g6" x2="1" gradientUnits="userSpaceOnUse" gradientTransform="matrix(395.103,0,0,101.138,28,36)">
			<stop offset="0" stop-color="#412cba"/>
			<stop offset="1" stop-color="#ff94d2"/>
		</linearGradient>
		<linearGradient id="g7" x2="1" gradientUnits="userSpaceOnUse" gradientTransform="matrix(311.577,0,0,101.139,28,199.507)">
			<stop offset="0" stop-color="#412cba"/>
			<stop offset="1" stop-color="#ff94d2"/>
		</linearGradient>
		<linearGradient id="g8" x2="1" gradientUnits="userSpaceOnUse" gradientTransform="matrix(185.044,207.819,-21.821,19.429,138.584,-66.717)">
			<stop offset="0" stop-color="#412cba" stop-opacity="0"/>
			<stop offset="1" stop-color="#ff94d2"/>
		</linearGradient>
		<linearGradient id="g9" x2="1" gradientUnits="userSpaceOnUse" gradientTransform="matrix(185.044,207.819,-21.821,19.429,138.584,260.297)">
			<stop offset="0" stop-color="#412cba" stop-opacity="0"/>
			<stop offset="1" stop-color="#ff94d2"/>
		</linearGradient>
		<linearGradient id="g10" x2="1" gradientUnits="userSpaceOnUse" gradientTransform="matrix(124.734,140.086,-8.89,7.916,139.025,127.868)">
			<stop offset="0" stop-color="#412cba" stop-opacity="0"/>
			<stop offset="1" stop-color="#ff94d2"/>
		</linearGradient>
	</defs>
	<style>
		.s0 { fill: url(#g1) } 
		.s1 { opacity: .75;mix-blend-mode: multiply;fill: url(#g2) } 
		.s2 { fill: url(#g3) } 
		.s3 { fill: url(#g4) } 
		.s4 { opacity: .75;mix-blend-mode: multiply;fill: url(#g5) } 
		.s5 { fill: url(#g6) } 
		.s6 { fill: url(#g7) } 
		.s7 { opacity: .75;mix-blend-mode: screen;fill: url(#g8) } 
		.s8 { opacity: .75;mix-blend-mode: screen;fill: url(#g9) } 
		.s9 { opacity: .75;mix-blend-mode: screen;fill: url(#g10) } 
	</style>
	<g id="BACKGROUND">
	</g>
	<g id="OBJECTS">
		<g id="&lt;Group&gt;">
			<g id="&lt;Group&gt;">
			</g>
			<g id="&lt;Group&gt;">
			</g>
		</g>
		<g id="&lt;Group&gt;">
			<g id="&lt;Group&gt;">
				<path id="&lt;Path&gt;" class="s0" d="m28 300.65l327.53 163.5 67.57-101.14-282.48-163.5z"/>
				<path id="&lt;Path&gt;" class="s1" d="m203.69 236.01h-103.72l-71.97 64.64 62.47 31.18h278.76z"/>
				<path id="&lt;Path&gt;" class="s2" d="m356.59 464.15h-328.59v-29.08c0-39.8 32.26-72.06 72.06-72.06h323.04v34.63c0 36.73-29.78 66.51-66.51 66.51z"/>
				<path id="&lt;Path&gt;" class="s3" d="m28 137.14l198.96 163.51 112.62-101.14-238.38-163.51z"/>
				<path id="&lt;Path&gt;" class="s4" d="m101.2 36l-73.2 101.14 37.95 31.18h228.16z"/>
				<path id="&lt;Path&gt;" class="s5" d="m356.59 137.14h-328.59v-29.08c0-39.8 32.26-72.06 72.06-72.06h323.04v34.63c0 36.73-29.78 66.51-66.51 66.51z"/>
				<path id="&lt;Path&gt;" class="s6" d="m240.02 300.65h-212.02v-1.59c0-54.98 44.57-99.55 99.55-99.55h212.03v1.58c0 54.98-44.58 99.56-99.56 99.56z"/>
				<path id="&lt;Path&gt;" class="s7" d="m32.68 76.99h390.42v-40.99h-329.94c-27.44 0-50.87 16.98-60.48 40.99z"/>
				<path id="&lt;Path&gt;" class="s8" d="m32.68 404.01h390.42v-41h-329.94c-27.44 0-50.87 16.99-60.48 41z"/>
				<path id="&lt;Path&gt;" class="s9" d="m118.02 199.51c-19.87 0-38.18 6.52-53.08 17.43h274.32c0.14-2.1 0.32-4.19 0.32-6.32v-11.11z"/>
			</g>
			<g id="&lt;Group&gt;">
			</g>
		</g>
		<g id="&lt;Group&gt;">
			<g id="&lt;Group&gt;">
			</g>
			<g id="&lt;Group&gt;">
			</g>
		</g>
		<g id="&lt;Group&gt;">
			<g id="&lt;Group&gt;">
			</g>
			<g id="&lt;Group&gt;">
			</g>
		</g>
		<g id="&lt;Group&gt;">
			<g id="&lt;Group&gt;">
			</g>
			<g id="&lt;Group&gt;">
			</g>
		</g>
		<g id="&lt;Group&gt;">
			<g id="&lt;Group&gt;">
			</g>
			<g id="&lt;Group&gt;">
			</g>
		</g>
	</g>
</svg>